<mxfile host="app.diagrams.net" modified="2023-03-24T02:51:17.533Z" agent="5.0 (Macintosh; Intel Mac OS X 10_15_7) AppleWebKit/537.36 (KHTML, like Gecko) Chrome/111.0.0.0 Safari/537.36" etag="jEZKGrSuzlvRV6X8bpuO" version="21.0.10" type="github">
  <diagram name="Page-1" id="dWt4UDEhbC5dxuiRtfSG">
    <mxGraphModel dx="1129" dy="575" grid="1" gridSize="10" guides="1" tooltips="1" connect="1" arrows="1" fold="1" page="1" pageScale="1" pageWidth="850" pageHeight="1100" math="0" shadow="0">
      <root>
        <mxCell id="0" />
        <mxCell id="1" parent="0" />
      </root>
    </mxGraphModel>
  </diagram>
</mxfile>
